<?xml version="1.0" encoding="UTF-8" standalone="no"?>
<svg
   xmlns:dc="http://purl.org/dc/elements/1.1/"
   xmlns:cc="http://creativecommons.org/ns#"
   xmlns:rdf="http://www.w3.org/1999/02/22-rdf-syntax-ns#"
   xmlns:svg="http://www.w3.org/2000/svg"
   xmlns="http://www.w3.org/2000/svg"
   xmlns:sodipodi="http://sodipodi.sourceforge.net/DTD/sodipodi-0.dtd"
   xmlns:inkscape="http://www.inkscape.org/namespaces/inkscape"
   version="1.1"
   id="Layer_1"
   x="0px"
   y="0px"
   viewBox="0 0 512 512"
   style="enable-background:new 0 0 512 512;"
   xml:space="preserve"
   sodipodi:docname="dinosay.svg"
   inkscape:version="1.0.1 (3bc2e813f5, 2020-09-07)"><metadata
   id="metadata55"><rdf:RDF><cc:Work
       rdf:about=""><dc:format>image/svg+xml</dc:format><dc:type
         rdf:resource="http://purl.org/dc/dcmitype/StillImage" /><dc:title></dc:title></cc:Work></rdf:RDF></metadata><defs
   id="defs53" /><sodipodi:namedview
   pagecolor="#ffffff"
   bordercolor="#666666"
   borderopacity="1"
   objecttolerance="10"
   gridtolerance="10"
   guidetolerance="10"
   inkscape:pageopacity="0"
   inkscape:pageshadow="2"
   inkscape:window-width="1920"
   inkscape:window-height="1017"
   id="namedview51"
   showgrid="false"
   inkscape:zoom="0.77832031"
   inkscape:cx="94.290906"
   inkscape:cy="366.7426"
   inkscape:window-x="0"
   inkscape:window-y="0"
   inkscape:window-maximized="1"
   inkscape:current-layer="Layer_1" />
<path
   style="fill:#306998;fill-opacity:1"
   d="M324.55,334.258v35.003c0,0.669-0.01,1.327-0.03,1.986c-1.054,35.175-29.897,63.36-65.316,63.36  V481.2h8.713c12.816,0,23.2,10.384,23.2,23.2H247.31c-13.576,0-24.578-11.002-24.578-24.578V290.876L324.55,334.258z"
   id="path2" />
<path
   style="fill:#ffd43b;fill-opacity:1"
   d="M324.55,334.258v35.003c0,0.669-0.01,1.327-0.03,1.986c-17.172,8.763-36.624,13.707-57.221,13.707  h-31.437l-13.13,0.365v-94.443L324.55,334.258z"
   id="path4" />
<path
   style="fill:#4b8bbe;fill-opacity:1"
   d="M504.216,74.454h-83.582l24.426,25.986h58.082l-14.852,33.099h-93.967l-1.013,89.833  c-0.77,69.044-56.968,124.613-126.012,124.613h-31.437l-25.784,0.719l-76.136,2.117C120.802,420.15,73.266,478.029,7.789,504.401  l12.026-17.983c19.269-28.833,29.563-62.732,29.563-97.401c0-67.555,27.385-128.727,71.658-173s105.445-71.658,173-71.658  l20.445-86.358c7.001-29.542,33.382-50.403,63.745-50.403c3.475,0,6.94,0.274,10.364,0.821c3.424,0.547,6.798,1.368,10.111,2.452  L504.216,45.58L504.216,74.454L504.216,74.454z"
   id="path6" />
<path
   style="fill:#ffd43b;fill-opacity:1"
   d="M415.123,133.539h-20.799l-1.013,89.833c-0.77,69.044-56.968,124.613-126.012,124.613h-31.437  l-25.784,0.719l-25.936-37.192c0,0,51.709,16.352,127.643-25.834c75.275-41.821,38.894-205.45,38.265-208.277l15.551,50.818  L415.123,133.539z"
   id="path8" />
<path
   style="fill:#306998;fill-opacity:1"
   d="M235.855,327.867v41.395c0,36.088-29.255,65.343-65.343,65.343l0,0v46.598h8.712  c12.813,0,23.199,10.387,23.199,23.199l0,0h-43.805c-13.574,0-24.577-11.003-24.577-24.577v-56.998  c0-8.849,4.166-17.18,11.245-22.49l25.226-18.919l-17.171-10.85c-36.345-22.966-37.477-75.57-2.155-100.08l0,0l22.818-1.229  C207.612,267.448,235.855,294.21,235.855,327.867z"
   id="path10" />
<path
   d="M415.098,46.413c0.536,0.115,1.072,0.17,1.6,0.17c3.505,0,6.657-2.441,7.422-6.008c0.878-4.103-1.734-8.142-5.839-9.022  l-9.455-2.026c-4.091-0.877-8.142,1.733-9.022,5.838c-0.878,4.103,1.734,8.142,5.839,9.022L415.098,46.413z"
   id="path12" />
<path
   d="M341.475,314.279c-6.305,5.073-13.007,9.416-20.019,13.043c-0.301,0.135-0.59,0.29-0.868,0.461  c-16.369,8.292-34.436,12.604-53.291,12.604h-23.844v-30.39c0-4.196-3.401-7.598-7.598-7.598c-4.197,0-7.598,3.402-7.598,7.598  v59.264c0,31.84-25.903,57.745-57.745,57.745c-4.197,0-7.598,3.402-7.598,7.598v46.598c0,4.196,3.401,7.598,7.598,7.598h8.713  c5.846,0,10.951,3.232,13.621,8.003h-34.227c-9.362,0-16.979-7.617-16.979-16.979v-56.998c0-6.423,3.068-12.558,8.206-16.411  l25.225-18.919c2-1.499,3.134-3.885,3.033-6.383c-0.1-2.496-1.42-4.785-3.533-6.12l-17.171-10.85  c-14.908-9.42-24.035-25.571-24.415-43.201s8.043-34.159,22.532-44.212c3.448-2.392,4.304-7.126,1.912-10.575  c-2.391-3.448-7.124-4.304-10.575-1.911c-18.687,12.967-29.552,34.285-29.062,57.025c0.236,10.954,3.096,21.46,8.139,30.77  c-6.475,31.792-20.711,61.775-41.313,86.858c-15.394,18.742-34.159,34.542-55.15,46.561c18.013-28.999,27.504-62.21,27.504-96.442  c0-7.866,0.39-15.806,1.16-23.6c0.412-4.176-2.639-7.896-6.816-8.308c-4.174-0.417-7.896,2.639-8.308,6.815  c-0.819,8.287-1.233,16.73-1.233,25.093c0,33.273-9.78,65.494-28.28,93.177L1.469,500.177c-1.853,2.771-1.684,6.426,0.418,9.014  c1.474,1.817,3.658,2.808,5.899,2.808c0.951,0,1.915-0.179,2.837-0.55c33.303-13.414,62.951-35.165,85.736-62.906  c19.386-23.601,33.528-51.236,41.441-80.674c3.446,3.406,7.284,6.471,11.479,9.121l7.854,4.962l-16.406,12.305  c-8.945,6.709-14.285,17.388-14.285,28.569v56.998c0,17.742,14.434,32.176,32.176,32.176h43.804c4.197,0,7.598-3.402,7.598-7.598  c0-16.982-13.816-30.798-30.797-30.798h-1.114v-31.795c13.854-1.441,26.565-6.78,37.022-14.891v52.904  c0,17.742,14.435,32.177,32.178,32.177h43.806c4.197,0,7.598-3.402,7.598-7.598c0-16.982-13.816-30.799-30.798-30.799h-1.115v-31.79  c36.664-3.812,65.346-34.896,65.346-72.551v-30.479c6.612-3.663,12.924-7.893,18.852-12.663c3.27-2.63,3.788-7.414,1.158-10.683  C349.528,312.168,344.745,311.649,341.475,314.279z M316.951,369.261c0,31.842-25.905,57.748-57.748,57.748  c-4.197,0-7.598,3.402-7.598,7.598V481.2c0,4.196,3.401,7.598,7.598,7.598h8.714c5.847,0,10.952,3.232,13.622,8.004h-34.229  c-9.363,0-16.981-7.618-16.981-16.98v-68.88c8.264-11.824,13.124-26.193,13.124-41.682v-13.677h23.844  c17.076,0,33.953-3.311,49.654-9.588V369.261z"
   id="path14" />
<path
   d="M511.813,74.454V45.58c0-3.281-2.106-6.192-5.224-7.218L401.061,3.649c-3.693-1.209-7.487-2.129-11.275-2.733  C385.982,0.308,382.093,0,378.223,0c-34.038,0-63.291,23.13-71.139,56.25l-19.077,80.58  c-65.127,1.516-126.125,27.591-172.346,73.814c-35.088,35.087-58.864,79.191-68.758,127.544c-0.841,4.111,1.809,8.126,5.921,8.967  c0.515,0.105,1.027,0.156,1.532,0.156c3.534,0,6.7-2.479,7.436-6.077c9.296-45.427,31.64-86.869,64.617-119.846  c2.618-2.618,5.292-5.161,8.008-7.64l7.351,6.033c1.413,1.16,3.119,1.725,4.816,1.725c2.195,0,4.375-0.948,5.878-2.778  c2.661-3.244,2.19-8.032-1.054-10.693l-5.256-4.314c7.18-5.753,14.644-11.06,22.363-15.896l4.663,7.723  c1.427,2.364,3.938,3.672,6.511,3.672c1.337,0,2.693-0.354,3.921-1.095c3.593-2.169,4.746-6.84,2.576-10.432l-4.54-7.518  c7.48-4.038,15.164-7.657,23.023-10.853l3.621,10.577c1.08,3.155,4.03,5.14,7.188,5.14c0.817,0,1.647-0.133,2.463-0.411  c3.97-1.36,6.087-5.68,4.727-9.65l-3.741-10.926c9.326-3.103,18.861-5.631,28.566-7.552l5.426,16.118  c1.069,3.173,4.028,5.176,7.2,5.176c0.804,0,1.622-0.129,2.426-0.399c3.976-1.339,6.115-5.648,4.777-9.626l-4.63-13.753  c9.124-1.198,18.371-1.872,27.705-2.012l16.956,21.39c1.499,1.892,3.718,2.878,5.959,2.878c1.653,0,3.318-0.537,4.715-1.644  c3.289-2.607,3.841-7.387,1.234-10.674l-16.984-21.425l19.596-82.773c6.216-26.237,29.389-44.559,56.351-44.559  c3.069,0,6.153,0.244,9.166,0.725c3.002,0.479,6.012,1.21,8.935,2.167L496.616,51.08v15.775h-75.984  c-0.012,0-0.024,0.003-0.036,0.003h-26.194c-4.197,0-7.598,3.402-7.598,7.598s3.401,7.598,7.598,7.598h22.948l22.173,23.589  c1.437,1.528,3.441,2.394,5.537,2.394h46.344l-8.034,17.902H373.078l-0.932-1.577c-15.363-26.082-18.892-57.593-9.682-86.452  c1.277-3.998-0.93-8.273-4.928-9.549c-3.999-1.274-8.274,0.93-9.549,4.929c-10.525,32.976-6.491,68.981,11.069,98.793l3.142,5.319  c1.368,2.314,3.855,3.734,6.543,3.734h17.897l-0.927,82.151c-0.298,26.746-9.282,51.889-25.982,72.709  c-2.626,3.273-2.1,8.055,1.173,10.681c3.272,2.626,8.055,2.1,10.681-1.173c17.274-21.535,27.206-47.169,29.01-74.53h17.564v9.117  c0,4.196,3.401,7.598,7.598,7.598c4.197,0,7.598-3.402,7.598-7.598v-16.715c0-4.196-3.401-7.598-7.598-7.598h-24.762l0.842-74.641  h86.453c2.993,0,5.707-1.757,6.933-4.487l14.852-33.099c1.055-2.351,0.846-5.077-0.554-7.24c-1.4-2.163-3.801-3.469-6.379-3.469  h-54.796l-10.142-10.79h66.012C508.411,82.052,511.813,78.65,511.813,74.454z"
   id="path16" />
<path
   d="M363.931,247.691c4.197,0,7.598-3.402,7.598-7.598v-16.715c0-4.196-3.401-7.598-7.598-7.598h-16.57l15.015-19.708  c2.543-3.338,1.899-8.106-1.44-10.649c-3.338-2.544-8.107-1.899-10.649,1.439l-24.314,31.911c-1.751,2.298-2.048,5.389-0.765,7.977  c1.283,2.589,3.921,4.226,6.809,4.226h24.314v9.117C356.332,244.289,359.733,247.691,363.931,247.691z"
   id="path18" />
<g
   id="g20">
</g>
<g
   id="g22">
</g>
<g
   id="g24">
</g>
<g
   id="g26">
</g>
<g
   id="g28">
</g>
<g
   id="g30">
</g>
<g
   id="g32">
</g>
<g
   id="g34">
</g>
<g
   id="g36">
</g>
<g
   id="g38">
</g>
<g
   id="g40">
</g>
<g
   id="g42">
</g>
<g
   id="g44">
</g>
<g
   id="g46">
</g>
<g
   id="g48">
</g>
</svg>
